# xmcd
#
# Track frame offsets: 
#        150
#        11050
#        23222
#        33535
#        42694
#        54431
#        67053
#        76817
#        88728
#        99464
#        109871
#
# Disc length: 1585 seconds
#
# Revision: 0
# Processed by: cddbd v1.5.2PL0 Copyright (c) Steve Scherf et al.
# Submitted via: ExactAudioCopy v1.3
#
DISCID=8f062f0b
DTITLE=Loretta Lynn - Alone With You
DYEAR=1972
DGENRE=Country
TTITLE0=This Haunted House
TTITLE1=When Lonely Hits Yor Heart
TTITLE2=Alone With You
TTITLE3=World Of Forgotton People
TTITLE4=My Shoes Keep Walking Back To You
TTITLE5=You've Made Me What I Am
TTITLE6=It Just Looks That Way
TTITLE7=I Walked Away From The Wreck
TTITLE8=Fool #1
TTITLE9=Loose Talk
TTITLE10=Get Set For A Heartache
EXTD=
EXTT0=
EXTT1=
EXTT2=
EXTT3=
EXTT4=
EXTT5=
EXTT6=
EXTT7=
EXTT8=
EXTT9=
EXTT10=
PLAYORDER=
